<svg width="16" height="16" viewBox="0 0 16 16" fill="none" xmlns="http://www.w3.org/2000/svg">
<g id="Group 8">
<path id="Vector" d="M4.62053 4.12231L5.81601 4.48436C5.35892 5.35683 5.07181 6.38105 5.07181 7.1723C5.07181 8.99939 6.55823 10.4858 8.38532 10.4858C10.2123 10.4858 11.6988 8.99928 11.6988 7.1723C11.6988 6.38105 11.4117 5.35683 10.9546 4.48436L12.15 4.12242C12.587 3.99008 12.9157 3.6938 13.052 3.30932C13.1883 2.92497 13.1197 2.48774 12.8638 2.10966L12.0659 0.931492C11.9277 0.727462 11.6504 0.674131 11.4464 0.812165C11.2423 0.950315 11.1889 1.22778 11.327 1.43181L12.1249 2.60998C12.2216 2.75277 12.2521 2.89522 12.211 3.01106C12.1699 3.12702 12.0564 3.21846 11.8914 3.26831L10.6114 3.65592C10.5631 3.67056 10.5193 3.69298 10.4805 3.72099C10.0723 3.16653 9.61531 2.77961 9.13719 2.58058L9.94436 1.43924C10.0866 1.238 10.0388 0.95961 9.83758 0.817277C9.63646 0.67506 9.35795 0.722814 9.21573 0.924056L8.38521 2.09839L7.55479 0.924056C7.41258 0.722814 7.13407 0.674944 6.93294 0.817277C6.7317 0.95961 6.68395 1.238 6.82617 1.43924L7.63334 2.58058C7.15522 2.77961 6.69812 3.16653 6.29006 3.72099C6.25114 3.69298 6.20734 3.67044 6.159 3.6558L4.87917 3.26831C4.71418 3.21835 4.60066 3.12702 4.55953 3.01106C4.51851 2.89522 4.54907 2.75277 4.64574 2.60998L5.4435 1.43181C5.58165 1.22778 5.5282 0.950315 5.32417 0.812165C5.12014 0.674014 4.84268 0.727462 4.70453 0.931492L3.90677 2.10966C3.65092 2.48774 3.58225 2.92497 3.71854 3.30944C3.85483 3.6938 4.18365 3.99008 4.62053 4.12231Z" fill="url(#paint0_linear_0_839)"/>
<path id="Vector_2" d="M15.3204 12.0462C15.1447 11.3436 14.653 10.3496 14.2009 9.78328L13.5085 8.91626C13.3902 8.2118 13.1726 7.45726 12.8779 6.7255L13.5835 6.51171C14.3348 6.28432 15.1695 5.54768 15.4839 4.83485L15.9618 3.75103C16.0611 3.5255 15.959 3.2621 15.7335 3.16276C15.5082 3.06353 15.2447 3.16555 15.1453 3.39107L14.6674 4.47478C14.4569 4.9522 13.8297 5.50492 13.325 5.65771L12.5093 5.90473L12.5536 6.59199L12.591 7.17225C12.591 9.49141 10.7042 11.3781 8.38514 11.3781C6.0661 11.3781 4.1794 9.49129 4.1794 7.17225C4.1794 7.06466 4.18382 6.95393 4.19207 6.84122L4.19393 6.81682L4.26108 5.90473L3.44531 5.65771C2.9407 5.50492 2.3135 4.9522 2.10297 4.47478L1.62508 3.39107C1.52562 3.16555 1.26221 3.06341 1.03681 3.16276C0.811396 3.26222 0.709149 3.5255 0.808491 3.75103L1.28638 4.83473C1.60079 5.54768 2.4355 6.28432 3.18667 6.51171L3.89253 6.7255C3.59775 7.45726 3.38013 8.2118 3.26185 8.91615L2.56935 9.78339C2.11737 10.3496 1.62566 11.3436 1.44998 12.0462L0.783975 14.7103C0.724137 14.9493 0.869491 15.1916 1.10861 15.2513C1.14486 15.2604 1.18123 15.2648 1.21713 15.2648C1.41698 15.2648 1.59893 15.1294 1.64959 14.9267L2.31559 12.2627C2.4484 11.7316 2.82788 10.9438 3.17691 10.459C3.39128 13.1448 5.64514 15.2647 8.38514 15.2647C11.125 15.2647 13.379 13.1448 13.5934 10.459C13.9424 10.9438 14.3219 11.7316 14.4547 12.2627L15.1207 14.9267C15.1713 15.1294 15.3533 15.2648 15.5531 15.2648C15.5891 15.2648 15.6254 15.2604 15.6617 15.2513C15.9008 15.1916 16.0461 14.9493 15.9864 14.7103L15.3204 12.0462Z" fill="url(#paint1_linear_0_839)"/>
</g>
<defs>
<linearGradient id="paint0_linear_0_839" x1="8.38528" y1="-8.53948" x2="8.38528" y2="20.593" gradientUnits="userSpaceOnUse">
<stop stop-color="#78B065"/>
<stop offset="1" stop-color="#388D79"/>
</linearGradient>
<linearGradient id="paint1_linear_0_839" x1="8.38517" y1="-8.42307" x2="8.38517" y2="27.849" gradientUnits="userSpaceOnUse">
<stop stop-color="#78B065"/>
<stop offset="1" stop-color="#388D79"/>
</linearGradient>
</defs>
</svg>
