<svg width="29" height="22" viewBox="0 0 29 22" fill="none" xmlns="http://www.w3.org/2000/svg">
<g id="Group 117">
<g id="Group 118">
<path id="Subtract" fill-rule="evenodd" clip-rule="evenodd" d="M7.33333 1.83333C7.33333 0.820812 8.15414 0 9.16666 0H18.9444C19.957 0 20.7778 0.820812 20.7778 1.83333C20.7778 2.84586 21.5986 3.66667 22.6111 3.66667H24.4444C26.4695 3.66667 28.1111 5.30829 28.1111 7.33333V18C28.1111 20.2091 26.3202 22 24.1111 22H4C1.79086 22 0 20.2091 0 18V7.33333C0 5.30829 1.64162 3.66667 3.66667 3.66667H5.5C6.51252 3.66667 7.33333 2.84586 7.33333 1.83333ZM14 19C17.866 19 21 15.866 21 12C21 8.13401 17.866 5 14 5C10.134 5 7 8.13401 7 12C7 15.866 10.134 19 14 19Z" fill="#63A36C"/>
<circle id="Ellipse 45" cx="14" cy="12" r="5" fill="#63A36C"/>
</g>
</g>
</svg>
