<svg width="24" height="22" viewBox="0 0 24 22" fill="none" xmlns="http://www.w3.org/2000/svg">
<g id="Layer_2_00000154399694884061480560000015505170056280207754_">
<g id="_01.favourite">
<path id="Vector" d="M23.8303 8.38812C23.5068 10.2306 22.7567 11.8996 21.7487 13.4607C20.4032 15.5376 18.6873 17.2582 16.7605 18.7912C15.6306 19.6866 14.4445 20.5118 13.2162 21.2712C12.4474 21.7494 11.6504 21.7963 10.8768 21.3228C8.72026 20.0101 6.70434 18.5146 4.91346 16.7237C3.59608 15.4063 2.45216 13.9483 1.56141 12.3074C0.586265 10.5025 -0.0138226 8.58503 0.000241927 6.52223C0.0143065 4.3891 0.88162 2.64041 2.57874 1.33241C3.84455 0.357267 5.2932 -0.074046 6.88249 0.0103413C8.22331 0.080664 9.40005 0.619805 10.4643 1.40742C10.9706 1.78247 11.9645 2.67323 11.9785 2.69198C12.4099 2.3263 12.8177 1.95125 13.249 1.6137C14.2383 0.844838 15.3212 0.258815 16.5777 0.0759759C18.3357 -0.177186 19.9391 0.24475 21.3643 1.2949C22.6817 2.26536 23.5115 3.56867 23.8537 5.17203C24.0881 6.24094 24.0178 7.31453 23.8303 8.38812Z" fill="#B2D39F"/>
</g>
</g>
</svg>
