<svg width="14" height="14" viewBox="0 0 14 14" fill="none" xmlns="http://www.w3.org/2000/svg">
<path id="Vector" d="M10.1111 0H3.88889C2.85749 0 1.86834 0.409721 1.13903 1.13903C0.409721 1.86834 0 2.85749 0 3.88889V10.1111C0 11.1425 0.409721 12.1317 1.13903 12.861C1.86834 13.5903 2.85749 14 3.88889 14H10.1111C10.6218 14 11.1275 13.8994 11.5993 13.704C12.0711 13.5085 12.4999 13.2221 12.861 12.861C13.2221 12.4999 13.5085 12.0711 13.704 11.5993C13.8994 11.1275 14 10.6218 14 10.1111V3.88889C14 3.37819 13.8994 2.8725 13.704 2.40068C13.5085 1.92885 13.2221 1.50015 12.861 1.13903C12.4999 0.777912 12.0711 0.491459 11.5993 0.296024C11.1275 0.100589 10.6218 0 10.1111 0ZM3.88889 4.66667H7C7.20628 4.66667 7.40411 4.74861 7.54997 4.89447C7.69583 5.04033 7.77778 5.23816 7.77778 5.44444C7.77778 5.65072 7.69583 5.84855 7.54997 5.99442C7.40411 6.14028 7.20628 6.22222 7 6.22222H3.88889C3.68261 6.22222 3.48478 6.14028 3.33892 5.99442C3.19306 5.84855 3.11111 5.65072 3.11111 5.44444C3.11111 5.23816 3.19306 5.04033 3.33892 4.89447C3.48478 4.74861 3.68261 4.66667 3.88889 4.66667ZM10.1111 9.33333H3.88889C3.68261 9.33333 3.48478 9.25139 3.33892 9.10553C3.19306 8.95967 3.11111 8.76184 3.11111 8.55556C3.11111 8.34928 3.19306 8.15145 3.33892 8.00558C3.48478 7.85972 3.68261 7.77778 3.88889 7.77778H10.1111C10.3174 7.77778 10.5152 7.85972 10.6611 8.00558C10.8069 8.15145 10.8889 8.34928 10.8889 8.55556C10.8889 8.76184 10.8069 8.95967 10.6611 9.10553C10.5152 9.25139 10.3174 9.33333 10.1111 9.33333Z" fill="url(#paint0_linear_0_818)"/>
<defs>
<linearGradient id="paint0_linear_0_818" x1="7" y1="-13.3171" x2="7" y2="28.5122" gradientUnits="userSpaceOnUse">
<stop stop-color="#78B065"/>
<stop offset="1" stop-color="#388D79"/>
</linearGradient>
</defs>
</svg>
