<svg width="20" height="20" viewBox="0 0 20 20" fill="none" xmlns="http://www.w3.org/2000/svg">
<path d="M6.14132 18.6086L16.1416 8.60837L11.3916 3.85845L1.3914 13.8587C1.25373 13.9965 1.15593 14.1691 1.10839 14.358L0 20L5.64093 18.8916C5.83033 18.8443 6.00358 18.7463 6.14132 18.6086ZM19.3699 5.38006C19.7733 4.97646 20 4.42914 20 3.85845C20 3.28776 19.7733 2.74044 19.3699 2.33684L17.6632 0.630137C17.2596 0.226661 16.7122 0 16.1416 0C15.5709 0 15.0235 0.226661 14.6199 0.630137L12.9132 2.33684L17.6632 7.08676L19.3699 5.38006Z" fill="#D1E7C4"/>
</svg>
