<svg width="23" height="18" viewBox="0 0 23 18" fill="none" xmlns="http://www.w3.org/2000/svg">
<g id="Group 117">
<g id="Group 118">
<path id="Subtract" fill-rule="evenodd" clip-rule="evenodd" d="M5.76786 1.44203C5.76786 0.645619 6.41348 0 7.20989 0H14.9007C15.6971 0 16.3427 0.645619 16.3427 1.44203C16.3427 2.23844 16.9884 2.88406 17.7848 2.88406H19.2269C20.8198 2.88406 22.1111 4.17536 22.1111 5.76825V13.3044C22.1111 15.5135 20.3202 17.3044 18.1111 17.3044H4C1.79086 17.3044 0 15.5135 0 13.3044V5.76799C0 4.17524 1.29118 2.88406 2.88393 2.88406H4.32583C5.12224 2.88406 5.76786 2.23844 5.76786 1.44203ZM11.0119 14.9447C14.0527 14.9447 16.5178 12.4796 16.5178 9.43874C16.5178 6.3979 14.0527 3.93281 11.0119 3.93281C7.97102 3.93281 5.50593 6.3979 5.50593 9.43874C5.50593 12.4796 7.97102 14.9447 11.0119 14.9447Z" fill="white"/>
<circle id="Ellipse 45" cx="11.0119" cy="9.43879" r="3.93281" fill="white"/>
</g>
</g>
</svg>
