<svg width="23" height="18" viewBox="0 0 23 18" fill="none" xmlns="http://www.w3.org/2000/svg">
<path fill-rule="evenodd" clip-rule="evenodd" d="M5.99967 1.49999C5.99967 0.671567 6.67124 0 7.49966 0H15.4996C16.328 0 16.9996 0.671567 16.9996 1.49999C16.9996 2.32841 17.6711 2.99997 18.4996 2.99997H19.9997C21.6566 2.99997 22.9998 4.34317 22.9998 6.00008V13.8391C22.9998 16.137 21.1369 17.9998 18.839 17.9998H4.16076C1.86284 17.9998 0 16.137 0 13.8391V5.99981C0 4.34305 1.34307 2.99997 2.99984 2.99997H4.49969C5.32811 2.99997 5.99967 2.32841 5.99967 1.49999ZM11.4544 15.5453C14.6175 15.5453 17.1817 12.9811 17.1817 9.81809C17.1817 6.65504 14.6175 4.09087 11.4544 4.09087C8.29138 4.09087 5.72722 6.65504 5.72722 9.81809C5.72722 12.9811 8.29138 15.5453 11.4544 15.5453Z" fill="white"/>
</svg>
