<svg width="21" height="17" viewBox="0 0 21 17" fill="none" xmlns="http://www.w3.org/2000/svg">
<path fill-rule="evenodd" clip-rule="evenodd" d="M4.4047 16.9869H16.5895C17.5944 16.9869 18.4063 16.1698 18.4063 15.17V6.79694C18.4063 5.79211 17.5893 4.98013 16.5895 4.98013H10.9209V4.14277V3.93812C11.8141 3.75035 12.489 2.94851 12.489 1.99443C12.489 0.893182 11.5958 0 10.4997 0C9.3984 0 8.50522 0.893182 8.50522 1.99443C8.50522 2.94851 9.18018 3.75035 10.0784 3.93812V4.14277V4.98013H4.4047C3.39987 4.98013 2.58789 5.79719 2.58789 6.79694V15.1751C2.58789 16.1749 3.39987 16.9869 4.4047 16.9869ZM13.4329 7.5531C14.2094 7.5531 14.8387 8.18239 14.8387 8.95377C14.8387 9.73023 14.2094 10.3544 13.4329 10.3544C12.6616 10.3544 12.0323 9.73023 12.0323 8.95377C12.0272 8.18239 12.6565 7.5531 13.4329 7.5531ZM7.56636 7.5531C8.34282 7.5531 8.96703 8.18239 8.96703 8.95377C8.96703 9.73023 8.34282 10.3544 7.56636 10.3544C6.7899 10.3544 6.16569 9.73023 6.16569 8.95377C6.16062 8.18239 6.78483 7.5531 7.56636 7.5531ZM15.1804 12.4674C15.3111 12.7271 15.2065 13.0435 14.9468 13.1741C10.9628 15.1784 7.36034 14.0236 6.00341 13.1459C5.75934 12.988 5.68946 12.6622 5.84733 12.4181C6.0052 12.174 6.33103 12.1042 6.5751 12.262C7.67431 12.973 10.8788 14.0423 14.4737 12.2338C14.7334 12.1032 15.0498 12.2078 15.1804 12.4674ZM1.74576 13.2472V7.1725C0.77646 7.18772 0 7.97941 0 8.94871V11.4659C0 12.4402 0.77646 13.2269 1.74576 13.2472ZM19.2492 7.1725V13.2472C20.2134 13.237 21 12.4402 21 11.4709V8.94871C21 7.97941 20.2134 7.18773 19.2492 7.1725Z" fill="white"/>
</svg>
