<svg width="15" height="18" viewBox="0 0 15 18" fill="none" xmlns="http://www.w3.org/2000/svg">
<g id="Group 234">
<g id="Group 235">
<g id="Ellipse 51">
<mask id="path-1-inside-1_0_2606" fill="white">
<path d="M14.1686 9.98278C14.208 11.5794 13.7003 13.1415 12.7296 14.4098C11.759 15.6781 10.3838 16.5764 8.83235 16.9555C7.28089 17.3346 5.64643 17.1718 4.20025 16.4941C2.75407 15.8164 1.58312 14.6645 0.881767 13.2296C0.18041 11.7947 -0.00918768 10.1631 0.344442 8.60568C0.698072 7.04821 1.57366 5.65849 2.82589 4.66719C4.07812 3.67588 5.63169 3.1426 7.22875 3.15584C8.82581 3.16909 10.3703 3.72807 11.6059 4.74001L10.362 6.25892C9.47292 5.5308 8.3616 5.1286 7.21247 5.11906C6.06334 5.10953 4.9455 5.49325 4.04448 6.20652C3.14346 6.9198 2.51345 7.91974 2.259 9.04038C2.00455 10.161 2.14097 11.335 2.64562 12.3674C3.15027 13.3999 3.9928 14.2287 5.03337 14.7163C6.07394 15.204 7.24998 15.3211 8.36631 15.0484C9.48263 14.7756 10.4721 14.1292 11.1705 13.2166C11.8689 12.3041 12.2342 11.1801 12.2059 10.0312L14.1686 9.98278Z"/>
</mask>
<path d="M14.1686 9.98278C14.208 11.5794 13.7003 13.1415 12.7296 14.4098C11.759 15.6781 10.3838 16.5764 8.83235 16.9555C7.28089 17.3346 5.64643 17.1718 4.20025 16.4941C2.75407 15.8164 1.58312 14.6645 0.881767 13.2296C0.18041 11.7947 -0.00918768 10.1631 0.344442 8.60568C0.698072 7.04821 1.57366 5.65849 2.82589 4.66719C4.07812 3.67588 5.63169 3.1426 7.22875 3.15584C8.82581 3.16909 10.3703 3.72807 11.6059 4.74001L10.362 6.25892C9.47292 5.5308 8.3616 5.1286 7.21247 5.11906C6.06334 5.10953 4.9455 5.49325 4.04448 6.20652C3.14346 6.9198 2.51345 7.91974 2.259 9.04038C2.00455 10.161 2.14097 11.335 2.64562 12.3674C3.15027 13.3999 3.9928 14.2287 5.03337 14.7163C6.07394 15.204 7.24998 15.3211 8.36631 15.0484C9.48263 14.7756 10.4721 14.1292 11.1705 13.2166C11.8689 12.3041 12.2342 11.1801 12.2059 10.0312L14.1686 9.98278Z" fill="url(#paint0_linear_0_2606)" stroke="url(#paint1_linear_0_2606)" stroke-width="6" mask="url(#path-1-inside-1_0_2606)"/>
</g>
<path id="Vector 10" d="M9.67762 1.01569L11.7161 5.70885L7.02296 7.74736" stroke="url(#paint2_linear_0_2606)" stroke-width="2" stroke-linecap="round"/>
</g>
</g>
<defs>
<linearGradient id="paint0_linear_0_2606" x1="6.99787" y1="3.15774" x2="7.34352" y2="17.1535" gradientUnits="userSpaceOnUse">
<stop stop-color="#D9D9D9"/>
<stop offset="1" stop-color="#388D79"/>
</linearGradient>
<linearGradient id="paint1_linear_0_2606" x1="5.7491" y1="3.30142" x2="8.59175" y2="17.0098" gradientUnits="userSpaceOnUse">
<stop stop-color="#78B065"/>
<stop offset="1" stop-color="#388D79"/>
</linearGradient>
<linearGradient id="paint2_linear_0_2606" x1="10.5323" y1="5.0187" x2="13.0288" y2="6.02731" gradientUnits="userSpaceOnUse">
<stop stop-color="#70AC68"/>
<stop offset="1" stop-color="#78B065"/>
</linearGradient>
</defs>
</svg>
