<svg width="17" height="15" viewBox="0 0 17 15" fill="none" xmlns="http://www.w3.org/2000/svg">
<g id="Group 27">
<path id="Vector" d="M8.07199 0.0613804C8.00929 0.0119285 7.92199 0.0125347 7.85998 0.0628526C7.71137 0.213546 3.93233 3.79425 4.52869 7.05773C4.74102 8.21394 5.47566 9.1844 6.71474 9.95147C7.39311 10.3714 7.8849 11.0681 7.88795 11.8659L7.89358 13.3377C7.89418 13.425 7.96944 13.4869 8.04427 13.4863C8.1191 13.4858 8.19341 13.4105 8.19289 13.3356L8.18725 11.8615C8.18421 11.0649 8.66907 10.3651 9.34387 9.9416C10.5909 9.159 11.3158 8.18153 11.5126 7.00923C12.0636 3.73779 8.23516 0.209909 8.07199 0.0613804Z" fill="url(#paint0_linear_0_2583)"/>
<path id="Vector_2" d="M15.1933 10.1054C15.2079 10.057 15.1874 10.0058 15.1434 9.9809C15.0203 9.92831 12.0372 8.53286 10.2541 9.63969C9.65476 10.0125 9.26288 10.6235 9.08381 11.4603C8.96048 12.0366 8.62055 12.5653 8.07361 12.7849C8.02236 12.8054 8.00339 12.8641 8.02102 12.908C8.03866 12.9519 8.10022 12.9782 8.14415 12.9606C8.69063 12.7412 9.30126 12.8893 9.78586 13.2238C10.4966 13.7145 11.2017 13.8875 11.9 13.7398C13.9535 13.3065 15.1437 10.2358 15.1933 10.1054Z" fill="url(#paint1_linear_0_2583)"/>
<path id="Vector_3" d="M0.835222 10.1054C0.820631 10.057 0.841205 10.0058 0.885186 9.9809C1.00831 9.92831 3.99138 8.53286 5.77444 9.63969C6.37381 10.0125 6.76569 10.6235 6.94476 11.4603C7.06808 12.0366 7.40802 12.5653 7.95495 12.7849C8.0062 12.8054 8.02518 12.8641 8.00754 12.908C7.98991 12.9519 7.92834 12.9782 7.88441 12.9606C7.33794 12.7412 6.7273 12.8893 6.24271 13.2238C5.53194 13.7145 4.82682 13.8875 4.12856 13.7398C2.07511 13.3065 0.884873 10.2358 0.835222 10.1054Z" fill="url(#paint2_linear_0_2583)"/>
</g>
<defs>
<linearGradient id="paint0_linear_0_2583" x1="7.97196" y1="0.0246596" x2="8.06544" y2="13.4862" gradientUnits="userSpaceOnUse">
<stop stop-color="#78B065"/>
<stop offset="1" stop-color="#388D79"/>
</linearGradient>
<linearGradient id="paint1_linear_0_2583" x1="15.1918" y1="10.038" x2="8.02396" y2="12.9153" gradientUnits="userSpaceOnUse">
<stop stop-color="#78B065"/>
<stop offset="1" stop-color="#388D79"/>
</linearGradient>
<linearGradient id="paint2_linear_0_2583" x1="0.836771" y1="10.038" x2="8.0046" y2="12.9153" gradientUnits="userSpaceOnUse">
<stop stop-color="#78B065"/>
<stop offset="1" stop-color="#388D79"/>
</linearGradient>
</defs>
</svg>
