<?xml version="1.0" encoding="UTF-8"?>
<svg height="14" width="14" fill="none" viewBox="0 0 14 14" xmlns="http://www.w3.org/2000/svg">
  <path d="M10.5 1.75C10.5 2.09612 10.6026 2.43446 10.7949 2.72225C10.9872 3.01003 11.2605 3.23433 11.5803 3.36679C11.9001 3.49924 12.2519 3.5339 12.5914 3.46637C12.9309 3.39885 13.2427 3.23218 13.4874 2.98744C13.7322 2.74269 13.8988 2.43087 13.9664 2.09141C14.0339 1.75194 13.9992 1.40007 13.8668 1.0803C13.7343 0.760533 13.51 0.48722 13.2222 0.294928C12.9345 0.102636 12.5961 0 12.25 0C11.7859 0 11.3408 0.184374 11.0126 0.512563C10.6844 0.840751 10.5 1.28587 10.5 1.75ZM5.983 1.06295L9.46002 4.53998C10.5094 5.58935 11.0889 6.96763 11.0889 8.45555C11.0889 9.9278 10.5094 11.3217 9.46002 12.3711C8.37933 13.4518 6.95406 14 5.54445 14C4.13484 14 2.70958 13.4518 1.62888 12.3711C0.579505 11.3217 0 9.94347 0 8.45555C0 6.98329 0.579505 5.58935 1.62888 4.53998L5.09024 1.06295C5.34084 0.812351 5.7324 0.812351 5.983 1.06295Z" fill="url(#paint0_linear_0_2885)" fill-rule="evenodd"/>
  <defs>
    <linearGradient id="paint0_linear_0_2885" gradientUnits="userSpaceOnUse" x1="7" x2="7" y1="-13.3171" y2="28.5122">
      <stop stop-color="#78B065"/>
      <stop offset="1" stop-color="#388D79"/>
    </linearGradient>
  </defs>
</svg>
