<svg width="18" height="20" viewBox="0 0 18 20" fill="none" xmlns="http://www.w3.org/2000/svg">
<g id="Group 252">
<g id="Group 251">
<g id="Group 250">
<g id="Group 248">
<g id="Subtract">
<path d="M1.18353 15.2252L8.80109 18.4687C11.6006 16.2772 12.7957 12.2182 13.0433 10.4626C10.6022 8.80157 10.9474 6.77482 11.5863 5.27441L6.36683 3.052C1.44194 8.66956 0.859261 13.5081 1.18353 15.2252Z" fill="url(#paint0_linear_0_2849)"/>
<path d="M8.80109 18.4687L9.1093 18.8624C8.96589 18.9747 8.77278 19.0001 8.60521 18.9287L8.80109 18.4687ZM1.18353 15.2252L0.987653 15.6852C0.834033 15.6198 0.723201 15.482 0.692218 15.318L1.18353 15.2252ZM6.36683 3.052L5.99085 2.72238C6.13328 2.55993 6.36393 2.50732 6.56271 2.59196L6.36683 3.052ZM11.5863 5.27441L11.7821 4.81438C11.9042 4.86633 12.0005 4.96462 12.0501 5.08763C12.0996 5.21063 12.0982 5.34828 12.0463 5.47029L11.5863 5.27441ZM13.0433 10.4626L13.3245 10.0492C13.482 10.1564 13.565 10.3438 13.5384 10.5324L13.0433 10.4626ZM8.60521 18.9287L0.987653 15.6852L1.37941 14.7651L8.99697 18.0087L8.60521 18.9287ZM0.692218 15.318C0.331651 13.4087 0.995876 8.4199 5.99085 2.72238L6.7428 3.38161C1.88801 8.91922 1.38687 13.6075 1.67485 15.1324L0.692218 15.318ZM6.56271 2.59196L11.7821 4.81438L11.3904 5.73444L6.17095 3.51203L6.56271 2.59196ZM12.0463 5.47029C11.7422 6.18453 11.5356 6.96416 11.6539 7.73213C11.7686 8.47653 12.2004 9.28432 13.3245 10.0492L12.762 10.876C11.445 9.97988 10.8288 8.94376 10.6656 7.88442C10.506 6.84865 10.7915 5.8647 11.1262 5.07853L12.0463 5.47029ZM13.5384 10.5324C13.4081 11.4562 13.0344 12.9556 12.335 14.5076C11.6365 16.0576 10.5956 17.6989 9.1093 18.8624L8.49288 18.075C9.80614 17.0469 10.7625 15.563 11.4233 14.0967C12.0832 12.6325 12.4308 11.2246 12.5482 10.3928L13.5384 10.5324Z" fill="url(#paint1_linear_0_2849)"/>
</g>
<circle id="Ellipse 63" cx="0.307692" cy="0.307692" r="0.307692" transform="matrix(-0.920067 -0.391761 -0.391761 0.920067 15.272 8.51587)" fill="url(#paint2_linear_0_2849)"/>
<circle id="Ellipse 64" cx="0.461538" cy="0.461538" r="0.461538" transform="matrix(-0.920067 -0.391761 -0.391761 0.920067 14.4592 6.49756)" fill="url(#paint3_linear_0_2849)"/>
<circle id="Ellipse 65" cx="0.461538" cy="0.461538" r="0.461538" transform="matrix(-0.920067 -0.391761 -0.391761 0.920067 16.6821 6.77539)" fill="url(#paint4_linear_0_2849)"/>
<circle id="Ellipse 66" cx="0.461538" cy="0.461538" r="0.461538" transform="matrix(-0.920067 -0.391761 -0.391761 0.920067 17.2427 4.6731)" fill="url(#paint5_linear_0_2849)"/>
</g>
<g id="Group 249">
<path id="Vector" d="M8.47208 8.78709C8.49848 8.77992 8.52591 8.79182 8.5387 8.816C8.56531 8.88344 9.27579 10.519 8.64992 11.4675C8.50841 11.6815 8.31018 11.8433 8.0573 11.9521C7.52513 12.1809 6.97574 12.463 6.74676 12.9951C6.73485 13.0225 6.70284 13.0319 6.67933 13.0217C6.65581 13.0115 6.64251 12.9778 6.65271 12.9543C6.88176 12.422 6.70881 11.8296 6.50841 11.2859C6.41232 11.0252 6.39451 10.7682 6.45545 10.515C6.7208 9.41008 8.40073 8.812 8.47208 8.78709Z" fill="white"/>
<path id="Vector_2" d="M4.88036 10.9969C4.88225 10.9797 4.89562 10.9663 4.91281 10.9643C4.95867 10.9643 6.08604 10.9248 6.49945 11.5129C6.63832 11.7108 6.67982 11.956 6.62397 12.2437C6.5855 12.4419 6.62168 12.6541 6.76459 12.7967C6.77798 12.8101 6.77609 12.8311 6.76464 12.8426C6.75319 12.854 6.73026 12.8541 6.71878 12.8426C6.57599 12.7001 6.36369 12.6649 6.16607 12.7053C5.87622 12.7645 5.63079 12.7244 5.43056 12.5842C4.84155 12.1721 4.87851 11.0446 4.88036 10.9969Z" fill="white"/>
<path id="Vector_3" d="M9.40488 12.9235C9.41597 12.9102 9.41636 12.8913 9.40583 12.8776C9.37409 12.8445 8.62123 12.0044 7.91077 12.114C7.67186 12.151 7.46636 12.291 7.29764 12.5307C7.18144 12.6958 7.00336 12.8168 6.80153 12.8126C6.78262 12.8122 6.76877 12.8281 6.76843 12.8443C6.7681 12.8605 6.78397 12.8771 6.80018 12.8774C7.00184 12.8816 7.17442 13.0102 7.28224 13.1807C7.44039 13.4307 7.6394 13.5798 7.87928 13.627C8.58456 13.766 9.37172 12.958 9.40488 12.9235Z" fill="white"/>
</g>
</g>
<circle id="Ellipse 67" cx="1.74896" cy="14.0169" r="0.444444" transform="rotate(23.0641 1.74896 14.0169)" fill="white"/>
<circle id="Ellipse 73" cx="3.38471" cy="14.7132" r="0.444444" transform="rotate(23.0641 3.38471 14.7132)" fill="white"/>
<circle id="Ellipse 74" cx="5.02045" cy="15.4097" r="0.444444" transform="rotate(23.0641 5.02045 15.4097)" fill="white"/>
<circle id="Ellipse 75" cx="6.65619" cy="16.1062" r="0.444444" transform="rotate(23.0641 6.65619 16.1062)" fill="white"/>
<circle id="Ellipse 76" cx="8.29169" cy="16.8028" r="0.444444" transform="rotate(23.0641 8.29169 16.8028)" fill="white"/>
<circle id="Ellipse 71" cx="5.92792" cy="4.20266" r="0.444444" transform="rotate(23.0641 5.92792 4.20266)" fill="white"/>
<circle id="Ellipse 78" cx="7.56342" cy="4.8992" r="0.444444" transform="rotate(23.0641 7.56342 4.8992)" fill="white"/>
<circle id="Ellipse 79" cx="9.19916" cy="5.59573" r="0.444444" transform="rotate(23.0641 9.19916 5.59573)" fill="white"/>
<circle id="Ellipse 80" cx="10.8349" cy="6.29226" r="0.444444" transform="rotate(23.0641 10.8349 6.29226)" fill="white"/>
</g>
</g>
<defs>
<linearGradient id="paint0_linear_0_2849" x1="13.0436" y1="5.89496" x2="7.86035" y2="18.0681" gradientUnits="userSpaceOnUse">
<stop stop-color="#78B065"/>
<stop offset="1" stop-color="#388D79"/>
</linearGradient>
<linearGradient id="paint1_linear_0_2849" x1="13.0436" y1="5.89496" x2="7.86035" y2="18.0681" gradientUnits="userSpaceOnUse">
<stop stop-color="#78B065"/>
<stop offset="1" stop-color="#388D79"/>
</linearGradient>
<linearGradient id="paint2_linear_0_2849" x1="0.307692" y1="0" x2="0.307692" y2="0.615384" gradientUnits="userSpaceOnUse">
<stop stop-color="#78B065"/>
<stop offset="1" stop-color="#388D79"/>
</linearGradient>
<linearGradient id="paint3_linear_0_2849" x1="0.461538" y1="0" x2="0.461538" y2="0.923076" gradientUnits="userSpaceOnUse">
<stop stop-color="#78B065"/>
<stop offset="1" stop-color="#388D79"/>
</linearGradient>
<linearGradient id="paint4_linear_0_2849" x1="0.461538" y1="0" x2="0.461538" y2="0.923076" gradientUnits="userSpaceOnUse">
<stop stop-color="#78B065"/>
<stop offset="1" stop-color="#388D79"/>
</linearGradient>
<linearGradient id="paint5_linear_0_2849" x1="0.461538" y1="0" x2="0.461538" y2="0.923076" gradientUnits="userSpaceOnUse">
<stop stop-color="#78B065"/>
<stop offset="1" stop-color="#388D79"/>
</linearGradient>
</defs>
</svg>
