<svg width="70" height="83" viewBox="0 0 70 83" fill="none" xmlns="http://www.w3.org/2000/svg">
<path fill-rule="evenodd" clip-rule="evenodd" d="M34.7648 83.0001C20.6361 83.0001 8.67654 77.2003 0 68.6469C7.50404 64.4875 7.32816 64.3703 15.2426 61.4411C22.0431 59.0391 23.0397 58.6876 22.8052 53.0049C22.5707 49.3727 21.1051 51.4817 18.9946 45.6233C18.7601 44.9203 18.2911 43.4557 17.6462 42.9284C16.2392 41.3466 12.7217 37.1872 14.4804 31.5045C15.3598 28.5753 14.9495 29.1025 14.4804 25.939C13.8356 21.8381 13.7183 15.7453 15.3598 11.4686C18.4083 3.67691 25.7951 -0.482582 35.9959 0.044677C43.3827 0.396183 42.6206 2.73956 46.8416 4.20417C54.4043 6.72329 57.57 15.0423 55.1664 26.4662C54.5215 29.3368 53.8767 29.0439 54.8147 31.3873C55.8113 34.0236 55.2837 36.4256 54.6388 38.5346C53.2318 43.2213 53.2318 39.0033 50.6523 45.3304C49.0694 49.0798 46.7244 50.7201 46.6071 52.2433C45.845 58.5704 48.2486 59.4492 55.2837 62.0855C57.8632 63.0228 65.6017 66.245 69.7055 68.7641C61.8497 76.2629 51.7661 81.1254 41.0377 82.4728C39.0445 82.8244 36.9339 83.0001 34.7648 83.0001Z" fill="white"/>
</svg>
