<svg width="45" height="26" viewBox="0 0 45 26" fill="none" xmlns="http://www.w3.org/2000/svg">
<path d="M36.0547 7.26283C34.1944 7.26283 32.5144 7.82543 31.08 8.78831V0H27.1118V16.2076C27.1118 21.1387 31.1236 25.1069 36.0328 25.1069C40.9421 25.1069 44.9995 21.1624 44.9995 16.1621C44.9995 11.1616 41.0312 7.26283 36.0547 7.26283ZM18.0462 17.3527L14.4148 7.89285H11.6352L7.98193 17.3527L4.32877 7.89285H0L6.38915 24.5264H9.1687L13.0022 14.6187L16.8575 24.5264H19.637L26.0044 7.89285H21.6993L18.0462 17.3527ZM36.0348 21.1406C33.3445 21.1406 31.08 18.9891 31.08 16.1859C31.08 13.3825 33.2098 11.2548 36.0566 11.2548C38.9035 11.2548 41.0332 13.4736 41.0332 16.1859C41.0332 18.898 38.7688 21.1406 36.0348 21.1406Z" fill="white"/>
</svg>
