<svg width="56" height="47" viewBox="0 0 56 47" fill="none" xmlns="http://www.w3.org/2000/svg">
<path d="M22.869 8.92668e-05C23.2113 0.142896 23.5033 0.375001 23.8078 0.582908C27.3613 2.94245 30.9053 5.31883 34.4515 7.68997C34.9094 8.02284 35.4355 8.27906 35.8366 8.68019C35.7998 9.12335 35.6434 9.54339 35.5436 9.97392C34.1249 15.7652 32.638 21.5397 31.2361 27.3351C31.6751 26.85 32.0762 26.3333 32.4784 25.8188C35.7221 21.7455 38.9596 17.6648 42.2055 13.5925C42.3409 13.4655 42.4386 13.1966 42.6654 13.2607C43.0886 13.477 43.4666 13.7732 43.8635 14.0325C46.5749 15.8502 49.3041 17.6417 51.9944 19.4909C50.7911 24.4316 49.6317 29.3828 48.443 34.3256C48.3979 34.5241 48.3811 34.7278 48.3632 34.9304C50.4897 34.4569 52.6119 33.9686 54.7352 33.4792C55.046 33.4131 55.3631 33.3637 55.6582 33.2377C54.6407 36.8752 52.9059 40.3122 50.5779 43.2871C45.9638 44.1703 41.3465 45.0418 36.7334 45.9292C36.6263 45.9428 36.5202 45.9554 36.4142 45.9659C37.376 41.7561 38.4031 37.5609 39.3818 33.3553C39.5309 32.6938 39.7314 32.0416 39.8175 31.3675C36.3375 35.6739 32.9331 40.0434 29.451 44.3488C25.7777 43.6998 22.1035 43.0519 18.4292 42.4071C18.466 41.9388 18.6214 41.4946 18.7253 41.0399C20.2217 35.0197 21.7223 29.0016 23.2134 22.9814C22.8522 23.4582 22.535 23.9664 22.2148 24.4715C17.3885 31.9817 12.5791 39.5015 7.73604 47.0002C4.31065 43.8846 1.61192 39.9572 0 35.6119C0.163793 35.4691 0.287724 35.2916 0.390637 35.1026C7.87368 23.3951 15.4018 11.717 22.869 0V8.92668e-05Z" fill="#FFDD00"/>
</svg>
