<svg width="59" height="59" viewBox="0 0 59 59" fill="none" xmlns="http://www.w3.org/2000/svg">
<path d="M28.915 5.98638e-05H30.1087C34.3001 0.0994338 38.4745 1.07644 42.2471 2.91199C46.8054 5.09965 50.7736 8.49163 53.6676 12.6354C56.2073 16.2589 57.9213 20.4598 58.6181 24.8298C59.3012 29.0338 59.0622 33.3869 57.9139 37.4884C56.8893 41.151 55.1426 44.6117 52.7984 47.6072C50.2354 50.9114 46.9545 53.6542 43.2569 55.6049C39.2178 57.7429 34.6754 58.8986 30.1098 59.0001H28.9171C26.1945 58.9346 23.4771 58.5169 20.8718 57.7165C16.7238 56.4593 12.8719 54.2558 9.66069 51.346C6.21164 48.2088 3.49427 44.2543 1.87121 39.879C-0.0468282 34.8101 -0.495149 29.203 0.548458 23.8876C1.41023 19.4288 3.33249 15.1814 6.10167 11.5833C8.73553 8.14055 12.136 5.2878 15.9858 3.29365C19.9635 1.21281 24.4308 0.100452 28.9151 0L28.915 5.98638e-05Z" fill="#FF5326"/>
</svg>
